# xmcd CD database file
# Copyright (C) 1993-1998 Ti Kan
# 
# Track frame offsets:
#     187
#     12912
#     34320
#     51937
#     66560
#     92530
#     110100
#     123790
#     142507
#     150085
#     170660
#     193660
#     205860
#     221290
#     236342
#     256855
# 
# Disc length: 3664 seconds
# 
# Revision: 1
# Processed by: cddbd v1.4b41PL1 Copyright (c) Steve Scherf et al.
# Submitted via: DiscPlay 4.0.4
# 
DISCID=d20e4e10
DTITLE=The Gaither Vocal Band - Can't Stop Talking About Him
DYEAR=1900
DGENRE=
TTITLE0=Passin' The Faith Along
TTITLE1=Can't Stop Talking About Him
TTITLE2=Lamb of God
TTITLE3=The Lord of Hosts
TTITLE4=Daystar (Shine Down on Me)
TTITLE5=Joy in the Morning
TTITLE6=There is a Mountain
TTITLE7=A Few Good Men
TTITLE8=Unbelievable Friend
TTITLE9=Beyond The Open Door
TTITLE10=These Are They
TTITLE11=Temporary  Home
TTITLE12=Peace of The Rock
TTITLE13=Home Where I Belong
TTITLE14=Can't Believe My Eyes
TTITLE15=Arms Around The World
EXTD=
EXTT0=
EXTT1=
EXTT2=
EXTT3=
EXTT4=
EXTT5=
EXTT6=
EXTT7=
EXTT8=
EXTT9=
EXTT10=
EXTT11=
EXTT12=
EXTT13=
EXTT14=
EXTT15=
PLAYORDER=
